<svg xmlns="http://www.w3.org/2000/svg" xmlns:xlink="http://www.w3.org/1999/xlink" aria-hidden="true" role="img" class="iconify iconify--logos" width="35.93" height="32" preserveAspectRatio="xMidYMid meet" viewBox="0 0 256 228"><path fill="#00D8FF" d="M210.483 73.824a171.23 171.23 0 0 0-8.24-2.597c.465-1.9.893-3.777 1.273-5.621c6.238-30.281 2.16-54.676-11.769-68.151c-13.355-13.947-35.555-2.831-57.535 19.465c-2.182 2.183-4.253 4.407-6.233 6.671c-2.03-2.264-4.108-4.488-6.291-6.671c-21.98-22.296-44.18-33.411-57.536-19.465c-13.928 13.475-17.967 37.86-11.729 68.151c.38 1.844.757 3.721 1.243 5.621c-2.820.659-5.529 1.484-8.24 2.597c-29.261 10.133-50.651 26.557-50.651 53.306c0 26.748 21.39 43.173 50.651 53.305c2.71 1.112 5.42 1.938 8.24 2.597c-.486 1.9-.913 3.777-1.273 5.621c-6.195 30.281-2.16 54.676 11.768 68.152c13.355 13.947 35.556 2.83 57.536-19.465a171.23 171.23 0 0 0 6.233-6.671a171.23 171.23 0 0 0 6.291 6.671c21.98 22.296 44.18 33.411 57.536 19.465c13.928-13.475 17.967-37.86 11.729-68.152c-.38-1.844-.757-3.721-1.243-5.621c2.82-.659 5.529-1.484 8.24-2.597c29.261-10.133 50.651-26.557 50.651-53.305c0-26.748-21.39-43.173-50.651-53.305zm-78.537 66.5c-8.813 0-16.045-7.2-16.045-16.06s7.232-16.061 16.045-16.061s16.046 7.2 16.046 16.061s-7.233 16.06-16.046 16.06z"></path></svg>
